<?xml version="1.0" encoding="UTF-8"?>
<!DOCTYPE svg PUBLIC "-//W3C//DTD SVG 1.1//EN" "http://www.w3.org/Graphics/SVG/1.1/DTD/svg11.dtd">
<svg xmlns="http://www.w3.org/2000/svg" version="1.1" class="h-6 w-6" viewBox="0 0 125 125" style="shape-rendering:geometricPrecision; text-rendering:geometricPrecision; image-rendering:optimizeQuality; fill-rule:evenodd; clip-rule:evenodd" xmlns:xlink="http://www.w3.org/1999/xlink">
<g><path style="opacity:1" fill="#3f3932" d="M 98.5,7.5 C 99.7498,7.57735 100.583,8.24402 101,9.5C 102.595,15.7867 102.595,22.12 101,28.5C 100.29,29.9733 99.1238,30.6399 97.5,30.5C 97.7373,29.209 97.404,28.209 96.5,27.5C 98.0226,24.3703 98.6893,21.037 98.5,17.5C 99.6458,12.8998 97.6458,10.2332 92.5,9.5C 87.9113,10.9552 84.2447,13.6219 81.5,17.5C 80.6143,16.675 80.281,15.675 80.5,14.5C 81.5,12.8333 82.8333,11.5 84.5,10.5C 86.7802,9.35989 89.1136,8.19322 91.5,7C 93.8848,6.4436 96.2181,6.61027 98.5,7.5 Z"/></g>
<g><path style="opacity:1" fill="#413c35" d="M 29.5,14.5 C 33.1573,17.657 36.6573,20.9904 40,24.5C 40.2784,23.5842 40.7784,22.9175 41.5,22.5C 41.7352,23.0967 42.2352,23.4301 43,23.5C 51.1936,21.4332 59.3603,20.0999 67.5,19.5C 72.2888,19.6243 76.9555,20.4577 81.5,22C 87.0457,24.604 92.379,27.4373 97.5,30.5C 101.854,35.3655 105.854,40.5322 109.5,46C 107.798,48.2354 106.798,50.7354 106.5,53.5C 106.167,53.5 105.833,53.5 105.5,53.5C 103.002,48.4875 99.5024,44.1541 95,40.5C 94.5357,41.0944 94.369,41.7611 94.5,42.5C 91.6205,39.9606 88.2872,38.2939 84.5,37.5C 75.7054,36.5197 68.372,39.1864 62.5,45.5C 61.8333,45.8333 61.1667,46.1667 60.5,46.5C 59.9232,45.2267 59.2565,45.2267 58.5,46.5C 53.9684,53.4648 52.3017,61.1314 53.5,69.5C 51.8993,68.3572 51.2326,69.0239 51.5,71.5C 54.9052,88.4097 63.9052,96.743 78.5,96.5C 79.7193,95.7366 80.7193,94.7366 81.5,93.5C 82.5063,93.9377 82.5063,94.6043 81.5,95.5C 83.4458,96.8023 85.2791,97.469 87,97.5C 89.6396,95.6902 92.3063,94.0236 95,92.5C 95.8077,94.5787 95.641,96.5787 94.5,98.5C 93.3573,94.8752 92.0239,94.7085 90.5,98C 90.8333,98.3333 91.1667,98.6667 91.5,99C 88.9702,100.195 86.9702,102.028 85.5,104.5C 85.1203,102.979 84.9536,101.313 85,99.5C 83.1022,101.454 81.1022,102.454 79,102.5C 78.6258,103.416 78.1258,104.25 77.5,105C 78.4162,105.374 79.2496,105.874 80,106.5C 80.5564,108.885 80.3897,111.218 79.5,113.5C 59.1463,119.667 40.1463,117 22.5,105.5C 8.22016,92.0646 3.72016,75.7313 9,56.5C 10.9645,51.9144 13.2978,47.581 16,43.5C 16.3333,44.8333 16.6667,46.1667 17,47.5C 17.8928,48.7112 18.7261,48.7112 19.5,47.5C 14.9935,40.4185 13.4935,32.7518 15,24.5C 15.2004,22.6803 16.0337,21.347 17.5,20.5C 18.8366,19.6851 19.8366,18.5185 20.5,17C 23.5787,16.0272 26.5787,15.1939 29.5,14.5 Z"/></g>
<g><path style="opacity:0.707" fill="#2b2622" d="M 98.5,17.5 C 97.6695,12.1755 94.6695,10.3422 89.5,12C 87.2968,14.3722 84.9635,16.5389 82.5,18.5C 81.8485,19.0906 81.1818,19.7573 80.5,20.5C 69.006,16.5235 57.6726,16.5235 46.5,20.5C 46.5,21.1667 46.1667,21.5 45.5,21.5C 43.5,21.1667 41.5,20.8333 39.5,20.5C 51.8185,15.5398 64.4851,14.5398 77.5,17.5C 77.4346,17.9382 77.6012,18.2716 78,18.5C 78.9344,17.1416 79.7677,15.8083 80.5,14.5C 80.281,15.675 80.6143,16.675 81.5,17.5C 84.2447,13.6219 87.9113,10.9552 92.5,9.5C 97.6458,10.2332 99.6458,12.8998 98.5,17.5 Z"/></g>
<g><path style="opacity:0.987" fill="#ba7662" d="M 98.5,17.5 C 98.6893,21.037 98.0226,24.3703 96.5,27.5C 96.5654,27.9382 96.3988,28.2716 96,28.5C 92.1108,24.9722 87.6108,22.6389 82.5,21.5C 82.5,20.5 82.5,19.5 82.5,18.5C 84.9635,16.5389 87.2968,14.3722 89.5,12C 94.6695,10.3422 97.6695,12.1755 98.5,17.5 Z"/></g>
<g><path style="opacity:1" fill="#151311" d="M 82.5,18.5 C 82.5,19.5 82.5,20.5 82.5,21.5C 87.6108,22.6389 92.1108,24.9722 96,28.5C 96.3988,28.2716 96.5654,27.9382 96.5,27.5C 97.404,28.209 97.7373,29.209 97.5,30.5C 92.379,27.4373 87.0457,24.604 81.5,22C 76.9555,20.4577 72.2888,19.6243 67.5,19.5C 60.4985,18.7813 53.4985,19.1147 46.5,20.5C 57.6726,16.5235 69.006,16.5235 80.5,20.5C 81.1818,19.7573 81.8485,19.0906 82.5,18.5 Z"/></g>
<g><path style="opacity:1" fill="#7e7768" d="M 67.5,19.5 C 59.3603,20.0999 51.1936,21.4332 43,23.5C 42.2352,23.4301 41.7352,23.0967 41.5,22.5C 42.8333,22.1667 44.1667,21.8333 45.5,21.5C 46.1667,21.5 46.5,21.1667 46.5,20.5C 53.4985,19.1147 60.4985,18.7813 67.5,19.5 Z"/></g>
<g><path style="opacity:0.984" fill="#c9806c" d="M 34.5,28.5 C 34.631,29.2389 34.4643,29.9056 34,30.5C 29.9992,33.6693 26.1659,37.0027 22.5,40.5C 21.0531,35.1332 21.2198,29.7999 23,24.5C 24.913,22.8131 27.0797,22.3131 29.5,23C 31.3734,24.7038 33.0401,26.5372 34.5,28.5 Z"/></g>
<g><path style="opacity:1" fill="#0a0907" d="M 98.5,35.5 C 100.293,35.8836 101.293,37.0503 101.5,39C 99.8524,42.3537 98.5191,42.187 97.5,38.5C 97.685,37.4163 98.0183,36.4163 98.5,35.5 Z"/></g>
<g><path style="opacity:1" fill="#a66851" d="M 34.5,28.5 C 35.8366,29.3149 36.8366,30.4815 37.5,32C 34.6952,34.6401 32.0285,37.4734 29.5,40.5C 28.914,40.2907 28.414,39.9574 28,39.5C 27.6667,40.8333 27.3333,42.1667 27,43.5C 26.6667,43.1667 26.3333,42.8333 26,42.5C 23.9871,44.7508 22.8204,44.0841 22.5,40.5C 26.1659,37.0027 29.9992,33.6693 34,30.5C 34.4643,29.9056 34.631,29.2389 34.5,28.5 Z"/></g>
<g><path style="opacity:1" fill="#bcb2a1" d="M 84.5,37.5 C 80.6653,38.4613 76.6653,39.2946 72.5,40C 68.9518,41.604 65.6184,43.4374 62.5,45.5C 68.372,39.1864 75.7054,36.5197 84.5,37.5 Z"/></g>
<g><path style="opacity:1" fill="#6f6156" d="M 84.5,37.5 C 88.2872,38.2939 91.6205,39.9606 94.5,42.5C 106.459,53.9853 107.626,66.652 98,80.5C 89.8832,88.4208 80.3832,90.5875 69.5,87C 56.031,78.9297 51.8643,67.4297 57,52.5C 57.926,50.3083 59.0927,48.3083 60.5,46.5C 61.1667,46.1667 61.8333,45.8333 62.5,45.5C 65.6184,43.4374 68.9518,41.604 72.5,40C 76.6653,39.2946 80.6653,38.4613 84.5,37.5 Z"/></g>
<g><path style="opacity:0.457" fill="#13100d" d="M 112.5,88.5 C 110.952,88.1788 110.285,87.1788 110.5,85.5C 113.741,77.9447 115.074,69.9447 114.5,61.5C 109.5,61.1667 106.833,58.5 106.5,53.5C 106.798,50.7354 107.798,48.2354 109.5,46C 105.854,40.5322 101.854,35.3655 97.5,30.5C 99.1238,30.6399 100.29,29.9733 101,28.5C 102.595,22.12 102.595,15.7867 101,9.5C 100.583,8.24402 99.7498,7.57735 98.5,7.5C 93.1491,4.41591 88.4824,5.41591 84.5,10.5C 82.8333,11.5 81.5,12.8333 80.5,14.5C 79.7677,15.8083 78.9344,17.1416 78,18.5C 77.6012,18.2716 77.4346,17.9382 77.5,17.5C 81.2598,7.12216 88.5932,2.62216 99.5,4C 103.589,7.33272 105.589,11.6661 105.5,17C 104.54,22.3291 103.373,27.4958 102,32.5C 105.385,36.2171 108.385,40.2171 111,44.5C 117.078,41.7964 121.745,43.4631 125,49.5C 125.104,55.2885 122.604,59.6218 117.5,62.5C 117.328,71.4995 115.661,80.1662 112.5,88.5 Z"/></g>
<g><path style="opacity:1" fill="#827a6b" d="M 98.5,7.5 C 96.2181,6.61027 93.8848,6.4436 91.5,7C 89.1136,8.19322 86.7802,9.35989 84.5,10.5C 88.4824,5.41591 93.1491,4.41591 98.5,7.5 Z"/></g>
<g><path style="opacity:1" fill="#b49b82" d="M 120.5,47.5 C 113.576,44.7505 109.576,47.0839 108.5,54.5C 107.726,48.8069 110.393,45.4735 116.5,44.5C 118.417,44.7538 119.751,45.7538 120.5,47.5 Z"/></g>
<g><path style="opacity:1" fill="#0f0d0b" d="M 41.5,49.5 C 43.4387,50.0138 44.4387,51.3472 44.5,53.5C 43.9763,56.3962 42.4763,57.0628 40,55.5C 39.2568,53.1261 39.7568,51.1261 41.5,49.5 Z"/></g>
<g><path style="opacity:0.984" fill="#b97966" d="M 120.5,47.5 C 122.026,48.4919 122.693,49.9919 122.5,52C 120.549,60.6763 116.049,62.5096 109,57.5C 108.517,56.552 108.351,55.552 108.5,54.5C 109.576,47.0839 113.576,44.7505 120.5,47.5 Z"/></g>
<g><path style="opacity:1" fill="#a06d59" d="M 33.5,64.5 C 40.3848,63.2139 44.3848,66.0472 45.5,73C 44.7016,78.4624 41.535,80.9624 36,80.5C 29.7791,80.0916 27.4458,76.7583 29,70.5C 30.332,68.34 31.832,66.34 33.5,64.5 Z"/></g>
<g><path style="opacity:0.832" fill="#100e0a" d="M 39.5,20.5 C 41.5,20.8333 43.5,21.1667 45.5,21.5C 44.1667,21.8333 42.8333,22.1667 41.5,22.5C 40.7784,22.9175 40.2784,23.5842 40,24.5C 36.6573,20.9904 33.1573,17.657 29.5,14.5C 23.4804,12.5287 19.4804,14.5287 17.5,20.5C 16.0337,21.347 15.2004,22.6803 15,24.5C 13.4935,32.7518 14.9935,40.4185 19.5,47.5C 18.7261,48.7112 17.8928,48.7112 17,47.5C 16.6667,46.1667 16.3333,44.8333 16,43.5C 13.2978,47.581 10.9645,51.9144 9,56.5C 3.72016,75.7313 8.22016,92.0646 22.5,105.5C 26.2095,110.037 30.8762,113.204 36.5,115C 36,115.5 35.5,116 35,116.5C 33.6703,115.418 32.1703,114.751 30.5,114.5C 13.2297,104.81 4.22972,89.9765 3.5,70C 4.58468,59.0817 8.25135,49.0817 14.5,40C 10.1328,28.8868 12.4661,19.5535 21.5,12C 29.4331,10.8004 35.4331,13.6337 39.5,20.5 Z"/></g>
<g><path style="opacity:1" fill="#a39b8b" d="M 29.5,14.5 C 26.5787,15.1939 23.5787,16.0272 20.5,17C 19.8366,18.5185 18.8366,19.6851 17.5,20.5C 19.4804,14.5287 23.4804,12.5287 29.5,14.5 Z"/></g>
<g><path style="opacity:1" fill="#38342f" d="M 105.5,53.5 C 105.833,53.5 106.167,53.5 106.5,53.5C 106.833,58.5 109.5,61.1667 114.5,61.5C 115.074,69.9447 113.741,77.9447 110.5,85.5C 102.687,97.6473 92.3538,106.981 79.5,113.5C 80.3897,111.218 80.5564,108.885 80,106.5C 79.2496,105.874 78.4162,105.374 77.5,105C 78.1258,104.25 78.6258,103.416 79,102.5C 81.1022,102.454 83.1022,101.454 85,99.5C 84.9536,101.313 85.1203,102.979 85.5,104.5C 86.9702,102.028 88.9702,100.195 91.5,99C 91.1667,98.6667 90.8333,98.3333 90.5,98C 92.0239,94.7085 93.3573,94.8752 94.5,98.5C 95.641,96.5787 95.8077,94.5787 95,92.5C 92.3063,94.0236 89.6396,95.6902 87,97.5C 85.2791,97.469 83.4458,96.8023 81.5,95.5C 82.5063,94.6043 82.5063,93.9377 81.5,93.5C 80.7193,94.7366 79.7193,95.7366 78.5,96.5C 63.9052,96.743 54.9052,88.4097 51.5,71.5C 51.2326,69.0239 51.8993,68.3572 53.5,69.5C 60.2128,91.3537 74.2128,97.8537 95.5,89C 101.879,83.1308 105.879,75.9642 107.5,67.5C 106.831,62.8234 106.165,58.1567 105.5,53.5 Z"/></g>
<g><path style="opacity:0.024" fill="#c6602e" d="M 120.5,82.5 C 123.001,82.5109 123.168,83.1776 121,84.5C 120.536,83.9056 120.369,83.2389 120.5,82.5 Z"/></g>
<g><path style="opacity:1" fill="#22201c" d="M 105.5,53.5 C 106.165,58.1567 106.831,62.8234 107.5,67.5C 105.879,75.9642 101.879,83.1308 95.5,89C 74.2128,97.8537 60.2128,91.3537 53.5,69.5C 52.3017,61.1314 53.9684,53.4648 58.5,46.5C 59.2565,45.2267 59.9232,45.2267 60.5,46.5C 59.0927,48.3083 57.926,50.3083 57,52.5C 51.8643,67.4297 56.031,78.9297 69.5,87C 80.3832,90.5875 89.8832,88.4208 98,80.5C 107.626,66.652 106.459,53.9853 94.5,42.5C 94.369,41.7611 94.5357,41.0944 95,40.5C 99.5024,44.1541 103.002,48.4875 105.5,53.5 Z"/></g>
<g><path style="opacity:1" fill="#a69b87" d="M 89.5,71.5 C 86.6601,73.9151 83.3267,75.2484 79.5,75.5C 82.3934,73.5546 85.7267,72.2213 89.5,71.5 Z"/></g>
<g><path style="opacity:1" fill="#c14626" d="M 76.5,73.5 C 77.1174,73.6107 77.6174,73.944 78,74.5C 78.498,77.4816 78.6646,80.4816 78.5,83.5C 76.2919,85.1429 74.4585,84.8096 73,82.5C 72.1786,79.4459 72.3452,76.4459 73.5,73.5C 74.2811,74.7287 74.7811,76.062 75,77.5C 75.21,75.9419 75.71,74.6085 76.5,73.5 Z"/></g>
<g><path style="opacity:1" fill="#32271e" d="M 76.5,73.5 C 75.71,74.6085 75.21,75.9419 75,77.5C 74.7811,76.062 74.2811,74.7287 73.5,73.5C 72.3452,76.4459 72.1786,79.4459 73,82.5C 74.4585,84.8096 76.2919,85.1429 78.5,83.5C 75.0926,87.7656 72.5926,87.0989 71,81.5C 70.2419,79.2305 70.4086,77.0639 71.5,75C 69.6183,74.8019 67.9516,74.3019 66.5,73.5C 67.3324,72.6715 66.999,71.8382 65.5,71C 66.6405,70.2588 66.6405,69.4255 65.5,68.5C 66,68.1667 66.5,67.8333 67,67.5C 67.7025,68.7948 68.3691,70.1281 69,71.5C 71.5603,69.217 74.227,67.8837 77,67.5C 78.8141,68.8514 78.4808,69.8514 76,70.5C 74.8687,69.3961 74.0354,69.7295 73.5,71.5C 74.6016,72.1757 75.6016,72.8423 76.5,73.5 Z"/></g>
<g><path style="opacity:1" fill="#1d1a16" d="M 82.5,47.5 C 80.2646,47.2053 78.2646,47.5386 76.5,48.5C 74.0672,48.2729 72.4006,49.2729 71.5,51.5C 72.4919,53.0265 73.9919,53.6932 76,53.5C 77.8784,53.3038 79.7117,52.9705 81.5,52.5C 80.2858,53.6256 79.2858,54.9589 78.5,56.5C 78.9148,58.9091 79.5815,61.2424 80.5,63.5C 84.4344,61.9466 88.2677,60.28 92,58.5C 95.8881,60.1847 96.5548,62.8513 94,66.5C 92.2927,68.0375 90.7927,69.7041 89.5,71.5C 85.7267,72.2213 82.3934,73.5546 79.5,75.5C 79.8064,78.3854 79.4731,81.0521 78.5,83.5C 78.6646,80.4816 78.498,77.4816 78,74.5C 77.6174,73.944 77.1174,73.6107 76.5,73.5C 75.6016,72.8423 74.6016,72.1757 73.5,71.5C 74.0354,69.7295 74.8687,69.3961 76,70.5C 78.4808,69.8514 78.8141,68.8514 77,67.5C 74.227,67.8837 71.5603,69.217 69,71.5C 68.3691,70.1281 67.7025,68.7948 67,67.5C 66.5,67.8333 66,68.1667 65.5,68.5C 66.6405,69.4255 66.6405,70.2588 65.5,71C 66.999,71.8382 67.3324,72.6715 66.5,73.5C 62.9302,70.9588 62.5969,67.9588 65.5,64.5C 69.7393,64.1828 74.0727,64.1828 78.5,64.5C 77.9492,61.1933 77.6159,57.8599 77.5,54.5C 75.0799,54.7076 72.7466,54.3742 70.5,53.5C 69.8515,49.9388 71.5181,47.7721 75.5,47C 78.0385,46.2042 80.3718,46.3709 82.5,47.5 Z"/></g>
<g><path style="opacity:1" fill="#dd6732" d="M 82.5,47.5 C 82.634,49.2915 82.3007,50.9582 81.5,52.5C 79.7117,52.9705 77.8784,53.3038 76,53.5C 73.9919,53.6932 72.4919,53.0265 71.5,51.5C 73.4341,50.8897 75.1007,49.8897 76.5,48.5C 78.2646,47.5386 80.2646,47.2053 82.5,47.5 Z"/></g>
<g><path style="opacity:1" fill="#c9a084" d="M 76.5,48.5 C 75.1007,49.8897 73.4341,50.8897 71.5,51.5C 72.4006,49.2729 74.0672,48.2729 76.5,48.5 Z"/></g>
<g><path style="opacity:1" fill="#2f231b" d="M 82.5,47.5 C 83.4972,47.4701 84.1639,47.9701 84.5,49C 84.2926,50.9497 83.2926,52.1164 81.5,52.5C 82.3007,50.9582 82.634,49.2915 82.5,47.5 Z"/></g>
<g><path style="opacity:0.008" fill="#f46c2c" d="M 118.5,89.5 C 119.289,89.7828 119.956,90.2828 120.5,91C 119.184,91.5281 118.517,91.0281 118.5,89.5 Z"/></g>
<g><path style="opacity:0.012" fill="#f46d2b" d="M 117.5,93.5 C 118.525,93.8966 118.692,94.5632 118,95.5C 117.536,94.9056 117.369,94.2389 117.5,93.5 Z"/></g>
<g><path style="opacity:0.008" fill="#f46d2b" d="M 113.5,95.5 C 114.833,96.1667 114.833,96.1667 113.5,95.5 Z"/></g>
<g><path style="opacity:0.008" fill="#f36c2b" d="M 109.5,98.5 C 110.833,99.1667 110.833,99.1667 109.5,98.5 Z"/></g>
<g><path style="opacity:0.02" fill="#f56d2b" d="M 105.5,102.5 C 107.657,103.053 107.49,104.053 105,105.5C 104.53,104.423 104.697,103.423 105.5,102.5 Z"/></g>
<g><path style="opacity:1" fill="#24201b" d="M 110.5,85.5 C 110.285,87.1788 110.952,88.1788 112.5,88.5C 111.649,90.8816 110.316,92.8816 108.5,94.5C 108.631,93.7611 108.464,93.0944 108,92.5C 91.7924,115.586 69.7924,123.92 42,117.5C 40.3164,117.683 40.1498,118.35 41.5,119.5C 37.1476,119.154 33.4809,117.488 30.5,114.5C 32.1703,114.751 33.6703,115.418 35,116.5C 35.5,116 36,115.5 36.5,115C 30.8762,113.204 26.2095,110.037 22.5,105.5C 40.1463,117 59.1463,119.667 79.5,113.5C 92.3538,106.981 102.687,97.6473 110.5,85.5 Z"/></g>
<g><path style="opacity:0.016" fill="#eb632a" d="M 89.5,115.5 C 91.9752,115.747 91.9752,116.413 89.5,117.5C 88.537,117.03 88.537,116.363 89.5,115.5 Z"/></g>
<g><path style="opacity:0.773" fill="#151310" d="M 108.5,94.5 C 96.5597,113.06 79.393,122.393 57,122.5C 51.4867,122.657 46.32,121.657 41.5,119.5C 40.1498,118.35 40.3164,117.683 42,117.5C 69.7924,123.92 91.7924,115.586 108,92.5C 108.464,93.0944 108.631,93.7611 108.5,94.5 Z"/></g>
</svg>
